<svg version="1.1" id="Layer_1" xmlns="http://www.w3.org/2000/svg" xmlns:xlink="http://www.w3.org/1999/xlink" x="0px" y="0px"
	 width="100%" viewBox="0 0 1040 296" enable-background="new 0 0 1040 296" xml:space="preserve">
<path fill="#242425" opacity="1.000000" stroke="none" 
	d="
M731.000000,297.000000 
	C487.333374,297.000000 244.166748,297.000000 1.000098,297.000000 
	C1.000065,198.333389 1.000065,99.666786 1.000033,1.000138 
	C347.666534,1.000092 694.333069,1.000092 1040.999756,1.000046 
	C1040.999756,99.666527 1040.999756,198.333054 1040.999878,296.999786 
	C937.833313,297.000000 834.666687,297.000000 731.000000,297.000000 
M653.694214,139.401932 
	C654.578430,138.186768 655.285950,136.776901 656.375610,135.788116 
	C663.405151,129.409271 670.558289,123.166336 677.562500,116.760254 
	C678.676453,115.741417 679.912720,114.144234 679.952759,112.780975 
	C680.180847,105.013809 680.063416,97.236504 680.063416,89.382332 
	C670.473511,89.382332 661.415955,89.382332 651.947876,89.382332 
	C651.947876,99.427994 651.947876,109.185814 651.947876,119.397385 
	C646.796265,119.397385 642.050171,119.397385 637.216614,119.397385 
	C637.216614,126.289345 637.216614,132.713486 637.216614,139.939163 
	C642.383911,139.939163 647.331055,139.939163 652.060974,140.861816 
	C652.054993,162.677551 652.012512,184.493362 652.062744,206.308960 
	C652.080688,214.078339 654.198975,220.959976 661.936157,224.437378 
	C673.491943,229.630997 685.549194,227.896103 697.496704,227.226471 
	C697.496704,219.895401 697.496704,213.292511 697.496704,206.314819 
	C695.120117,206.314819 692.999634,206.347733 690.880432,206.309204 
	C680.880310,206.127441 680.077209,205.334869 680.065247,195.399490 
	C680.044983,178.579697 680.059021,161.759857 680.058716,144.940048 
	C680.058655,143.200714 680.058655,141.461395 680.058655,139.878159 
	C670.994568,139.878159 662.684387,139.878159 653.694214,139.401932 
M867.694214,219.383728 
	C867.694824,201.217422 867.549805,183.049149 867.794800,164.886139 
	C867.858765,160.142838 868.443970,155.170685 870.013672,150.736923 
	C872.591309,143.455765 880.134094,139.993103 888.894409,141.025085 
	C895.161194,141.763336 899.635193,146.323074 900.981934,153.803299 
	C901.597534,157.222427 901.889343,160.743164 901.905151,164.219742 
	C901.991516,183.219025 901.946533,202.218903 901.946655,221.218567 
	C901.946655,222.829941 901.946655,224.441315 901.946655,225.992554 
	C911.590393,225.992554 920.653809,225.992554 930.001709,225.992554 
	C930.001709,224.042191 930.004944,222.399246 930.001282,220.756302 
	C929.948730,197.258179 930.028259,173.758575 929.764404,150.262817 
	C929.680786,142.817245 927.443115,135.787674 922.546143,129.937454 
	C907.885437,112.422775 880.917664,112.865143 866.872742,130.793289 
	C866.090637,131.791534 865.296204,132.780151 864.452820,133.842239 
	C851.958008,110.742546 816.697144,111.914680 804.072144,135.335068 
	C804.072144,129.777786 804.072144,125.072006 804.072144,120.285919 
	C794.871338,120.285919 786.148132,120.285919 777.358276,120.285919 
	C777.358276,155.671509 777.358276,190.759323 777.358276,226.030167 
	C786.671326,226.030167 795.732117,226.030167 805.174866,226.030167 
	C805.174866,205.629425 805.148071,185.498886 805.202637,165.368576 
	C805.211121,162.215897 805.366516,159.030579 805.836670,155.918167 
	C807.436218,145.328598 813.311523,140.570648 823.987610,140.983368 
	C833.836426,141.364120 838.394958,146.071335 839.286438,156.904770 
	C839.504761,159.557510 839.556824,162.229904 839.560120,164.893417 
	C839.582764,183.393066 839.572510,201.892761 839.572815,220.392441 
	C839.572876,222.199997 839.572815,224.007553 839.572815,226.018188 
	C849.076477,226.018188 858.150330,226.018188 867.694214,226.018188 
	C867.694214,223.941895 867.694214,222.145691 867.694214,219.383728 
M458.502014,180.042511 
	C477.582855,180.042511 496.663666,180.042511 516.286682,180.042511 
	C515.852295,172.858978 515.889526,166.339432 514.990784,159.951553 
	C512.335999,141.082169 503.835846,125.780563 485.066742,119.189133 
	C465.373535,112.273193 446.062744,113.555000 429.919434,128.385117 
	C414.073364,142.942139 411.952454,162.273819 413.837433,182.263733 
	C416.469666,210.178497 431.643188,225.758041 459.102997,229.633545 
	C480.074005,232.593231 500.564819,223.255676 510.394257,205.998840 
	C512.268738,202.707916 513.289246,198.930527 514.994446,194.647324 
	C504.990417,194.647324 496.348480,194.539368 487.715454,194.767776 
	C486.470886,194.800720 485.249695,196.426514 484.051056,197.358109 
	C480.338806,200.243408 477.066467,204.449448 472.865784,205.818848 
	C456.061005,211.297134 441.627716,199.103775 442.130676,180.042511 
	C447.237457,180.042511 452.370575,180.042511 458.502014,180.042511 
M542.042297,220.507126 
	C546.319153,222.669540 550.388062,225.544235 554.910706,226.865067 
	C570.435547,231.399094 586.143250,231.285873 601.718506,226.906448 
	C609.627380,224.682663 616.171875,220.258759 621.026489,213.496323 
	C632.544495,197.451935 628.137634,177.197708 610.788330,167.950424 
	C606.001465,165.399063 600.729370,163.581604 595.490784,162.093155 
	C586.225647,159.460663 576.795044,157.416336 567.474976,154.968658 
	C563.200439,153.846069 559.634460,151.722687 559.920410,146.495377 
	C560.205200,141.286560 563.775452,138.800903 568.295593,137.976532 
	C582.804932,135.330399 592.912109,137.148758 596.515442,150.989380 
	C605.629700,150.989380 614.723694,150.989380 624.045776,150.989380 
	C622.552612,136.161774 616.531189,124.922928 602.100647,119.655220 
	C587.939331,114.485794 573.462341,113.596771 558.944824,117.697311 
	C545.506226,121.493118 536.255127,130.022461 532.602844,143.779434 
	C528.647034,158.679611 533.939941,170.260010 547.923340,176.528305 
	C554.096802,179.295670 560.758484,181.021378 567.274536,182.965179 
	C575.708191,185.481033 584.364746,187.340607 592.605896,190.355850 
	C595.103394,191.269623 597.771118,194.925507 598.100220,197.603287 
	C598.394836,200.000183 596.225403,204.023468 594.020081,205.170990 
	C585.304993,209.705933 576.003174,208.863449 566.833618,206.169495 
	C559.879517,204.126419 557.894165,198.358597 556.937561,192.261566 
	C547.172241,192.261566 537.768982,192.261566 528.316223,192.261566 
	C528.606140,203.762985 532.850159,212.957275 542.042297,220.507126 
M282.057220,146.507324 
	C281.049316,137.049194 277.888855,128.746323 269.729279,123.014122 
	C251.777725,110.402893 226.925018,114.219658 213.773163,131.644531 
	C213.436935,132.089996 213.029373,132.481598 211.855988,133.788025 
	C211.855988,128.064194 211.855988,123.516045 211.855988,118.860664 
	C202.616821,118.860664 193.851532,118.860664 184.840500,118.860664 
	C184.840500,154.678284 184.840500,190.264771 184.840500,226.078247 
	C194.125412,226.078247 203.223099,226.078247 212.849075,226.078247 
	C212.849075,224.237579 212.848938,222.618454 212.849106,220.999329 
	C212.851089,203.334671 212.717697,185.668259 212.944778,168.006500 
	C213.006027,163.242828 213.558289,158.310242 214.935318,153.773956 
	C218.137253,143.225967 227.070450,138.035065 238.219193,139.518188 
	C248.413757,140.874374 252.615204,146.057022 253.378510,158.290878 
	C253.502884,160.284332 253.496750,162.287857 253.497635,164.286758 
	C253.505997,183.117950 253.502777,201.949158 253.502899,220.780350 
	C253.502899,222.522736 253.502884,224.265121 253.502884,226.040070 
	C263.546112,226.040070 272.814545,226.040070 282.124084,226.040070 
	C282.124084,199.648209 282.124084,173.520981 282.057220,146.507324 
M314.957001,165.594055 
	C321.753510,184.496292 328.613678,203.376144 335.280365,222.324066 
	C336.322876,225.287125 337.655701,226.506317 340.924957,226.388870 
	C348.242279,226.125992 355.579956,226.158752 362.900177,226.377975 
	C365.905151,226.467972 367.166138,225.437973 368.176849,222.615311 
	C380.209381,189.012100 392.398315,155.464905 404.521515,121.894112 
	C404.891266,120.870193 404.993164,119.749542 405.254669,118.509201 
	C395.122528,118.509201 385.341095,118.509201 375.397217,118.509201 
	C367.815002,144.630554 360.276794,170.600281 352.368042,197.846588 
	C344.602112,170.567551 337.174500,144.476883 329.805664,118.592697 
	C319.062897,118.592697 308.833740,118.592697 298.075134,118.592697 
	C303.731354,134.297333 309.232361,149.570938 314.957001,165.594055 
M716.160950,194.499924 
	C716.160950,204.951294 716.160950,215.402649 716.160950,225.941467 
	C726.051697,225.941467 735.411072,225.941467 744.766357,225.941467 
	C744.766357,189.980042 744.766357,154.384689 744.766357,118.675751 
	C735.162720,118.675751 725.786072,118.675751 716.160950,118.675751 
	C716.160950,143.870026 716.160950,168.684967 716.160950,194.499924 
M157.079086,133.500015 
	C157.079086,124.100845 157.079086,114.701683 157.079086,104.259941 
	C148.247543,112.110703 140.296844,119.332245 132.151276,126.326866 
	C129.666199,128.460800 128.692612,130.676636 128.707031,133.974899 
	C128.834518,163.097000 128.781006,192.219879 128.781006,221.342529 
	C128.781006,222.929794 128.781006,224.517075 128.781006,226.028809 
	C138.565933,226.028809 147.640839,226.028809 157.079086,226.028809 
	C157.079086,195.340912 157.079086,164.920471 157.079086,133.500015 
M172.238007,90.730331 
	C175.597565,87.742096 178.988861,84.788422 182.299866,81.747314 
	C183.497589,80.647240 185.386642,79.380608 185.447937,78.116653 
	C185.766266,71.551765 185.596146,64.963203 185.596146,58.457626 
	C175.710312,58.457626 166.610138,58.457626 157.415787,58.457626 
	C157.415787,73.551804 157.415787,88.370567 157.415787,103.928024 
	C162.550140,99.346779 167.123016,95.266518 172.238007,90.730331 
M744.818237,103.135628 
	C744.818237,95.064423 744.818237,86.993217 744.818237,79.155212 
	C734.982971,79.155212 725.730713,79.155212 716.442261,79.155212 
	C716.442261,87.578125 716.442261,95.655655 716.442261,103.771393 
	C725.853516,103.771393 734.984619,103.771393 744.818237,103.135628 
z"/>
<path fill="#FDFDFC" opacity="1.000000" stroke="none" 
	d="
M867.694214,219.866608 
	C867.694214,222.145691 867.694214,223.941895 867.694214,226.018188 
	C858.150330,226.018188 849.076477,226.018188 839.572815,226.018188 
	C839.572815,224.007553 839.572876,222.199997 839.572815,220.392441 
	C839.572510,201.892761 839.582764,183.393066 839.560120,164.893417 
	C839.556824,162.229904 839.504761,159.557510 839.286438,156.904770 
	C838.394958,146.071335 833.836426,141.364120 823.987610,140.983368 
	C813.311523,140.570648 807.436218,145.328598 805.836670,155.918167 
	C805.366516,159.030579 805.211121,162.215897 805.202637,165.368576 
	C805.148071,185.498886 805.174866,205.629425 805.174866,226.030167 
	C795.732117,226.030167 786.671326,226.030167 777.358276,226.030167 
	C777.358276,190.759323 777.358276,155.671509 777.358276,120.285919 
	C786.148132,120.285919 794.871338,120.285919 804.072144,120.285919 
	C804.072144,125.072006 804.072144,129.777786 804.072144,135.335068 
	C816.697144,111.914680 851.958008,110.742546 864.452820,133.842239 
	C865.296204,132.780151 866.090637,131.791534 866.872742,130.793289 
	C880.917664,112.865143 907.885437,112.422775 922.546143,129.937454 
	C927.443115,135.787674 929.680786,142.817245 929.764404,150.262817 
	C930.028259,173.758575 929.948730,197.258179 930.001282,220.756302 
	C930.004944,222.399246 930.001709,224.042191 930.001709,225.992554 
	C920.653809,225.992554 911.590393,225.992554 901.946655,225.992554 
	C901.946655,224.441315 901.946655,222.829941 901.946655,221.218567 
	C901.946533,202.218903 901.991516,183.219025 901.905151,164.219742 
	C901.889343,160.743164 901.597534,157.222427 900.981934,153.803299 
	C899.635193,146.323074 895.161194,141.763336 888.894409,141.025085 
	C880.134094,139.993103 872.591309,143.455765 870.013672,150.736923 
	C868.443970,155.170685 867.858765,160.142838 867.794800,164.886139 
	C867.549805,183.049149 867.694824,201.217422 867.694214,219.866608 
z"/>
<path fill="#FDFDFC" opacity="1.000000" stroke="none" 
	d="
M458.002838,180.042511 
	C452.370575,180.042511 447.237457,180.042511 442.130676,180.042511 
	C441.627716,199.103775 456.061005,211.297134 472.865784,205.818848 
	C477.066467,204.449448 480.338806,200.243408 484.051056,197.358109 
	C485.249695,196.426514 486.470886,194.800720 487.715454,194.767776 
	C496.348480,194.539368 504.990417,194.647324 514.994446,194.647324 
	C513.289246,198.930527 512.268738,202.707916 510.394257,205.998840 
	C500.564819,223.255676 480.074005,232.593231 459.102997,229.633545 
	C431.643188,225.758041 416.469666,210.178497 413.837433,182.263733 
	C411.952454,162.273819 414.073364,142.942139 429.919434,128.385117 
	C446.062744,113.555000 465.373535,112.273193 485.066742,119.189133 
	C503.835846,125.780563 512.335999,141.082169 514.990784,159.951553 
	C515.889526,166.339432 515.852295,172.858978 516.286682,180.042511 
	C496.663666,180.042511 477.582855,180.042511 458.002838,180.042511 
M477.498871,142.899796 
	C469.725006,137.769821 461.487854,137.152786 453.474884,141.702179 
	C446.079956,145.900665 443.660645,153.286865 442.635406,161.523788 
	C457.418488,161.523788 471.665161,161.523788 486.170105,161.523788 
	C486.138916,154.048981 483.729523,147.982529 477.498871,142.899796 
z"/>
<path fill="#FDFDFC" opacity="1.000000" stroke="none" 
	d="
M541.766113,220.277771 
	C532.850159,212.957275 528.606140,203.762985 528.316223,192.261566 
	C537.768982,192.261566 547.172241,192.261566 556.937561,192.261566 
	C557.894165,198.358597 559.879517,204.126419 566.833618,206.169495 
	C576.003174,208.863449 585.304993,209.705933 594.020081,205.170990 
	C596.225403,204.023468 598.394836,200.000183 598.100220,197.603287 
	C597.771118,194.925507 595.103394,191.269623 592.605896,190.355850 
	C584.364746,187.340607 575.708191,185.481033 567.274536,182.965179 
	C560.758484,181.021378 554.096802,179.295670 547.923340,176.528305 
	C533.939941,170.260010 528.647034,158.679611 532.602844,143.779434 
	C536.255127,130.022461 545.506226,121.493118 558.944824,117.697311 
	C573.462341,113.596771 587.939331,114.485794 602.100647,119.655220 
	C616.531189,124.922928 622.552612,136.161774 624.045776,150.989380 
	C614.723694,150.989380 605.629700,150.989380 596.515442,150.989380 
	C592.912109,137.148758 582.804932,135.330399 568.295593,137.976532 
	C563.775452,138.800903 560.205200,141.286560 559.920410,146.495377 
	C559.634460,151.722687 563.200439,153.846069 567.474976,154.968658 
	C576.795044,157.416336 586.225647,159.460663 595.490784,162.093155 
	C600.729370,163.581604 606.001465,165.399063 610.788330,167.950424 
	C628.137634,177.197708 632.544495,197.451935 621.026489,213.496323 
	C616.171875,220.258759 609.627380,224.682663 601.718506,226.906448 
	C586.143250,231.285873 570.435547,231.399094 554.910706,226.865067 
	C550.388062,225.544235 546.319153,222.669540 541.766113,220.277771 
z"/>
<path fill="#FDFDFC" opacity="1.000000" stroke="none" 
	d="
M282.090637,146.950531 
	C282.124084,173.520981 282.124084,199.648209 282.124084,226.040070 
	C272.814545,226.040070 263.546112,226.040070 253.502884,226.040070 
	C253.502884,224.265121 253.502899,222.522736 253.502899,220.780350 
	C253.502777,201.949158 253.505997,183.117950 253.497635,164.286758 
	C253.496750,162.287857 253.502884,160.284332 253.378510,158.290878 
	C252.615204,146.057022 248.413757,140.874374 238.219193,139.518188 
	C227.070450,138.035065 218.137253,143.225967 214.935318,153.773956 
	C213.558289,158.310242 213.006027,163.242828 212.944778,168.006500 
	C212.717697,185.668259 212.851089,203.334671 212.849106,220.999329 
	C212.848938,222.618454 212.849075,224.237579 212.849075,226.078247 
	C203.223099,226.078247 194.125412,226.078247 184.840500,226.078247 
	C184.840500,190.264771 184.840500,154.678284 184.840500,118.860664 
	C193.851532,118.860664 202.616821,118.860664 211.855988,118.860664 
	C211.855988,123.516045 211.855988,128.064194 211.855988,133.788025 
	C213.029373,132.481598 213.436935,132.089996 213.773163,131.644531 
	C226.925018,114.219658 251.777725,110.402893 269.729279,123.014122 
	C277.888855,128.746323 281.049316,137.049194 282.090637,146.950531 
z"/>
<path fill="#FCFCFB" opacity="1.000000" stroke="none" 
	d="
M314.845154,165.219299 
	C309.232361,149.570938 303.731354,134.297333 298.075134,118.592697 
	C308.833740,118.592697 319.062897,118.592697 329.805664,118.592697 
	C337.174500,144.476883 344.602112,170.567551 352.368042,197.846588 
	C360.276794,170.600281 367.815002,144.630554 375.397217,118.509201 
	C385.341095,118.509201 395.122528,118.509201 405.254669,118.509201 
	C404.993164,119.749542 404.891266,120.870193 404.521515,121.894112 
	C392.398315,155.464905 380.209381,189.012100 368.176849,222.615311 
	C367.166138,225.437973 365.905151,226.467972 362.900177,226.377975 
	C355.579956,226.158752 348.242279,226.125992 340.924957,226.388870 
	C337.655701,226.506317 336.322876,225.287125 335.280365,222.324066 
	C328.613678,203.376144 321.753510,184.496292 314.845154,165.219299 
z"/>
<path fill="#FCFCFB" opacity="1.000000" stroke="none" 
	d="
M716.160950,193.999908 
	C716.160950,168.684967 716.160950,143.870026 716.160950,118.675751 
	C725.786072,118.675751 735.162720,118.675751 744.766357,118.675751 
	C744.766357,154.384689 744.766357,189.980042 744.766357,225.941467 
	C735.411072,225.941467 726.051697,225.941467 716.160950,225.941467 
	C716.160950,215.402649 716.160950,204.951294 716.160950,193.999908 
z"/>
<path fill="#FFFFFE" opacity="1.000000" stroke="none" 
	d="
M157.079086,134.000031 
	C157.079086,164.920471 157.079086,195.340912 157.079086,226.028809 
	C147.640839,226.028809 138.565933,226.028809 128.781006,226.028809 
	C128.781006,224.517075 128.781006,222.929794 128.781006,221.342529 
	C128.781006,192.219879 128.834518,163.097000 128.707031,133.974899 
	C128.692612,130.676636 129.666199,128.460800 132.151276,126.326866 
	C140.296844,119.332245 148.247543,112.110703 157.079086,104.259941 
	C157.079086,114.701683 157.079086,124.100845 157.079086,134.000031 
z"/>
<path fill="#FDFDFC" opacity="1.000000" stroke="none" 
	d="
M654.374146,139.878159 
	C662.684387,139.878159 670.994568,139.878159 680.058655,139.878159 
	C680.058655,141.461395 680.058655,143.200714 680.058716,144.940048 
	C680.059021,161.759857 680.044983,178.579697 680.065247,195.399490 
	C680.077209,205.334869 680.880310,206.127441 690.880432,206.309204 
	C692.999634,206.347733 695.120117,206.314819 697.496704,206.314819 
	C697.496704,213.292511 697.496704,219.895401 697.496704,227.226471 
	C685.549194,227.896103 673.491943,229.630997 661.936157,224.437378 
	C654.198975,220.959976 652.080688,214.078339 652.062744,206.308960 
	C652.012512,184.493362 652.054993,162.677551 652.518799,140.416046 
	C653.442505,139.939575 653.908325,139.908875 654.374146,139.878159 
z"/>
<path fill="#FAFAFA" opacity="1.000000" stroke="none" 
	d="
M654.034180,139.640045 
	C653.908325,139.908875 653.442505,139.939575 652.627441,139.954712 
	C647.331055,139.939163 642.383911,139.939163 637.216614,139.939163 
	C637.216614,132.713486 637.216614,126.289345 637.216614,119.397385 
	C642.050171,119.397385 646.796265,119.397385 651.947876,119.397385 
	C651.947876,109.185814 651.947876,99.427994 651.947876,89.382332 
	C661.415955,89.382332 670.473511,89.382332 680.063416,89.382332 
	C680.063416,97.236504 680.180847,105.013809 679.952759,112.780975 
	C679.912720,114.144234 678.676453,115.741417 677.562500,116.760254 
	C670.558289,123.166336 663.405151,129.409271 656.375610,135.788116 
	C655.285950,136.776901 654.578430,138.186768 654.034180,139.640045 
z"/>
<path fill="#F9F9F8" opacity="1.000000" stroke="none" 
	d="
M171.966949,90.958290 
	C167.123016,95.266518 162.550140,99.346779 157.415787,103.928024 
	C157.415787,88.370567 157.415787,73.551804 157.415787,58.457626 
	C166.610138,58.457626 175.710312,58.457626 185.596146,58.457626 
	C185.596146,64.963203 185.766266,71.551765 185.447937,78.116653 
	C185.386642,79.380608 183.497589,80.647240 182.299866,81.747314 
	C178.988861,84.788422 175.597565,87.742096 171.966949,90.958290 
z"/>
<path fill="#FCFCFB" opacity="1.000000" stroke="none" 
	d="
M744.466980,103.453506 
	C734.984619,103.771393 725.853516,103.771393 716.442261,103.771393 
	C716.442261,95.655655 716.442261,87.578125 716.442261,79.155212 
	C725.730713,79.155212 734.982971,79.155212 744.818237,79.155212 
	C744.818237,86.993217 744.818237,95.064423 744.466980,103.453506 
z"/>
<path fill="#29292A" opacity="1.000000" stroke="none" 
	d="
M477.799500,143.108582 
	C483.729523,147.982529 486.138916,154.048981 486.170105,161.523788 
	C471.665161,161.523788 457.418488,161.523788 442.635406,161.523788 
	C443.660645,153.286865 446.079956,145.900665 453.474884,141.702179 
	C461.487854,137.152786 469.725006,137.769821 477.799500,143.108582 
z"/>
</svg>